<mxfile host="Electron" modified="2024-01-13T08:49:16.520Z" agent="Mozilla/5.0 (X11; Linux x86_64) AppleWebKit/537.36 (KHTML, like Gecko) draw.io/22.1.18 Chrome/120.0.6099.199 Electron/28.1.2 Safari/537.36" etag="cfLjae8cGwJ8n20D-_KO" version="22.1.18" type="device">
  <diagram name="Page-1" id="nYTnErXwOyJeHoqvrDUw">
    <mxGraphModel dx="1434" dy="782" grid="1" gridSize="10" guides="1" tooltips="1" connect="1" arrows="1" fold="1" page="1" pageScale="1" pageWidth="827" pageHeight="1169" math="0" shadow="0">
      <root>
        <mxCell id="0" />
        <mxCell id="1" parent="0" />
        <mxCell id="a7VzBbd8ES5O8KUD6r3B-4" value="" style="edgeStyle=orthogonalEdgeStyle;rounded=0;orthogonalLoop=1;jettySize=auto;html=1;" edge="1" parent="1" source="a7VzBbd8ES5O8KUD6r3B-1" target="a7VzBbd8ES5O8KUD6r3B-2">
          <mxGeometry relative="1" as="geometry" />
        </mxCell>
        <mxCell id="a7VzBbd8ES5O8KUD6r3B-13" value="" style="edgeStyle=orthogonalEdgeStyle;rounded=0;orthogonalLoop=1;jettySize=auto;html=1;" edge="1" parent="1" source="a7VzBbd8ES5O8KUD6r3B-1" target="a7VzBbd8ES5O8KUD6r3B-12">
          <mxGeometry relative="1" as="geometry" />
        </mxCell>
        <mxCell id="a7VzBbd8ES5O8KUD6r3B-1" value="User" style="rounded=1;whiteSpace=wrap;html=1;fillColor=#fa6800;fontColor=#000000;strokeColor=#C73500;" vertex="1" parent="1">
          <mxGeometry x="430" y="180" width="120" height="60" as="geometry" />
        </mxCell>
        <mxCell id="a7VzBbd8ES5O8KUD6r3B-5" value="" style="edgeStyle=orthogonalEdgeStyle;rounded=0;orthogonalLoop=1;jettySize=auto;html=1;" edge="1" parent="1" source="a7VzBbd8ES5O8KUD6r3B-2" target="a7VzBbd8ES5O8KUD6r3B-3">
          <mxGeometry relative="1" as="geometry" />
        </mxCell>
        <mxCell id="a7VzBbd8ES5O8KUD6r3B-2" value="SignUp" style="rounded=1;whiteSpace=wrap;html=1;fillColor=#f0a30a;fontColor=#000000;strokeColor=#BD7000;" vertex="1" parent="1">
          <mxGeometry x="650" y="180" width="120" height="60" as="geometry" />
        </mxCell>
        <mxCell id="a7VzBbd8ES5O8KUD6r3B-15" value="" style="edgeStyle=orthogonalEdgeStyle;rounded=0;orthogonalLoop=1;jettySize=auto;html=1;" edge="1" parent="1" source="a7VzBbd8ES5O8KUD6r3B-3" target="a7VzBbd8ES5O8KUD6r3B-14">
          <mxGeometry relative="1" as="geometry" />
        </mxCell>
        <mxCell id="a7VzBbd8ES5O8KUD6r3B-17" value="" style="edgeStyle=orthogonalEdgeStyle;rounded=0;orthogonalLoop=1;jettySize=auto;html=1;" edge="1" parent="1" source="a7VzBbd8ES5O8KUD6r3B-3" target="a7VzBbd8ES5O8KUD6r3B-16">
          <mxGeometry relative="1" as="geometry" />
        </mxCell>
        <mxCell id="a7VzBbd8ES5O8KUD6r3B-3" value="SignIn" style="rounded=1;whiteSpace=wrap;html=1;fillColor=#a0522d;fontColor=#ffffff;strokeColor=#6D1F00;" vertex="1" parent="1">
          <mxGeometry x="860" y="180" width="120" height="60" as="geometry" />
        </mxCell>
        <mxCell id="a7VzBbd8ES5O8KUD6r3B-6" value="Product View" style="whiteSpace=wrap;html=1;fillColor=#647687;strokeColor=#314354;fontColor=#ffffff;rounded=1;" vertex="1" parent="1">
          <mxGeometry x="360" y="370" width="120" height="60" as="geometry" />
        </mxCell>
        <mxCell id="a7VzBbd8ES5O8KUD6r3B-11" style="edgeStyle=orthogonalEdgeStyle;rounded=0;orthogonalLoop=1;jettySize=auto;html=1;entryX=0.658;entryY=0.05;entryDx=0;entryDy=0;entryPerimeter=0;" edge="1" parent="1" source="a7VzBbd8ES5O8KUD6r3B-1" target="a7VzBbd8ES5O8KUD6r3B-6">
          <mxGeometry relative="1" as="geometry" />
        </mxCell>
        <mxCell id="a7VzBbd8ES5O8KUD6r3B-12" value="Search Products" style="whiteSpace=wrap;html=1;fillColor=#008a00;strokeColor=#005700;fontColor=#ffffff;rounded=1;" vertex="1" parent="1">
          <mxGeometry x="510" y="370" width="120" height="60" as="geometry" />
        </mxCell>
        <mxCell id="a7VzBbd8ES5O8KUD6r3B-19" value="" style="edgeStyle=orthogonalEdgeStyle;rounded=0;orthogonalLoop=1;jettySize=auto;html=1;" edge="1" parent="1" source="a7VzBbd8ES5O8KUD6r3B-14" target="a7VzBbd8ES5O8KUD6r3B-18">
          <mxGeometry relative="1" as="geometry" />
        </mxCell>
        <mxCell id="a7VzBbd8ES5O8KUD6r3B-21" value="" style="edgeStyle=orthogonalEdgeStyle;rounded=0;orthogonalLoop=1;jettySize=auto;html=1;" edge="1" parent="1" source="a7VzBbd8ES5O8KUD6r3B-14" target="a7VzBbd8ES5O8KUD6r3B-20">
          <mxGeometry relative="1" as="geometry" />
        </mxCell>
        <mxCell id="a7VzBbd8ES5O8KUD6r3B-14" value="Add to cart" style="whiteSpace=wrap;html=1;fillColor=#60a917;strokeColor=#2D7600;fontColor=#ffffff;rounded=1;" vertex="1" parent="1">
          <mxGeometry x="860" y="440" width="120" height="60" as="geometry" />
        </mxCell>
        <mxCell id="a7VzBbd8ES5O8KUD6r3B-16" value="Add Products" style="whiteSpace=wrap;html=1;fillColor=#1ba1e2;strokeColor=#006EAF;fontColor=#ffffff;rounded=1;" vertex="1" parent="1">
          <mxGeometry x="760" y="350" width="120" height="60" as="geometry" />
        </mxCell>
        <mxCell id="a7VzBbd8ES5O8KUD6r3B-25" value="" style="edgeStyle=orthogonalEdgeStyle;rounded=0;orthogonalLoop=1;jettySize=auto;html=1;" edge="1" parent="1" source="a7VzBbd8ES5O8KUD6r3B-18" target="a7VzBbd8ES5O8KUD6r3B-24">
          <mxGeometry relative="1" as="geometry" />
        </mxCell>
        <mxCell id="a7VzBbd8ES5O8KUD6r3B-18" value="Add Address" style="whiteSpace=wrap;html=1;fillColor=#d80073;strokeColor=#A50040;fontColor=#ffffff;rounded=1;" vertex="1" parent="1">
          <mxGeometry x="1060" y="440" width="120" height="60" as="geometry" />
        </mxCell>
        <mxCell id="a7VzBbd8ES5O8KUD6r3B-23" value="" style="edgeStyle=orthogonalEdgeStyle;rounded=0;orthogonalLoop=1;jettySize=auto;html=1;" edge="1" parent="1" source="a7VzBbd8ES5O8KUD6r3B-20" target="a7VzBbd8ES5O8KUD6r3B-22">
          <mxGeometry relative="1" as="geometry" />
        </mxCell>
        <mxCell id="a7VzBbd8ES5O8KUD6r3B-27" value="" style="edgeStyle=orthogonalEdgeStyle;rounded=0;orthogonalLoop=1;jettySize=auto;html=1;" edge="1" parent="1" source="a7VzBbd8ES5O8KUD6r3B-20" target="a7VzBbd8ES5O8KUD6r3B-26">
          <mxGeometry relative="1" as="geometry" />
        </mxCell>
        <mxCell id="a7VzBbd8ES5O8KUD6r3B-20" value="List Cart" style="whiteSpace=wrap;html=1;fillColor=#76608a;strokeColor=#432D57;fontColor=#ffffff;rounded=1;" vertex="1" parent="1">
          <mxGeometry x="860" y="580" width="120" height="60" as="geometry" />
        </mxCell>
        <mxCell id="a7VzBbd8ES5O8KUD6r3B-22" value="Remove from Cart" style="whiteSpace=wrap;html=1;fillColor=#a20025;strokeColor=#6F0000;fontColor=#ffffff;rounded=1;" vertex="1" parent="1">
          <mxGeometry x="860" y="720" width="120" height="60" as="geometry" />
        </mxCell>
        <mxCell id="a7VzBbd8ES5O8KUD6r3B-31" value="" style="edgeStyle=orthogonalEdgeStyle;rounded=0;orthogonalLoop=1;jettySize=auto;html=1;" edge="1" parent="1" source="a7VzBbd8ES5O8KUD6r3B-24" target="a7VzBbd8ES5O8KUD6r3B-30">
          <mxGeometry relative="1" as="geometry" />
        </mxCell>
        <mxCell id="a7VzBbd8ES5O8KUD6r3B-24" value="Edit Address" style="whiteSpace=wrap;html=1;fillColor=#ffcccc;rounded=1;strokeColor=#36393d;" vertex="1" parent="1">
          <mxGeometry x="1060" y="580" width="120" height="60" as="geometry" />
        </mxCell>
        <mxCell id="a7VzBbd8ES5O8KUD6r3B-29" value="" style="edgeStyle=orthogonalEdgeStyle;rounded=0;orthogonalLoop=1;jettySize=auto;html=1;" edge="1" parent="1" source="a7VzBbd8ES5O8KUD6r3B-26" target="a7VzBbd8ES5O8KUD6r3B-28">
          <mxGeometry relative="1" as="geometry" />
        </mxCell>
        <mxCell id="a7VzBbd8ES5O8KUD6r3B-26" value="Checkout" style="whiteSpace=wrap;html=1;fillColor=#008a00;strokeColor=#005700;fontColor=#ffffff;rounded=1;" vertex="1" parent="1">
          <mxGeometry x="660" y="720" width="120" height="60" as="geometry" />
        </mxCell>
        <mxCell id="a7VzBbd8ES5O8KUD6r3B-28" value="Instantt Purchase" style="whiteSpace=wrap;html=1;rounded=1;fillColor=#f8cecc;gradientColor=#ea6b66;strokeColor=#b85450;" vertex="1" parent="1">
          <mxGeometry x="660" y="860" width="120" height="60" as="geometry" />
        </mxCell>
        <mxCell id="a7VzBbd8ES5O8KUD6r3B-30" value="Delete address" style="whiteSpace=wrap;html=1;fillColor=#f0a30a;strokeColor=#BD7000;rounded=1;fontColor=#000000;" vertex="1" parent="1">
          <mxGeometry x="1060" y="720" width="120" height="60" as="geometry" />
        </mxCell>
      </root>
    </mxGraphModel>
  </diagram>
</mxfile>
